<svg width="16" height="16" viewBox="0 0 16 16" fill="none" xmlns="http://www.w3.org/2000/svg">
<rect width="16" height="16" fill="#F9C034"/>
<path d="M11.6469 5.36655C11.8138 5.19084 11.9064 5.01973 12.0019 4.85427C12.068 4.73972 12.1489 4.69941 12.2734 4.71356C12.3551 4.72275 12.4381 4.71744 12.5202 4.72558C12.6817 4.74149 12.7061 4.78603 12.6075 4.90518C12.4261 5.12367 12.2897 5.37009 12.1387 5.60838C12.0825 5.69676 12.0782 5.76464 12.1242 5.85056C12.2578 6.09875 12.3897 6.34799 12.5202 6.5983C12.5439 6.64391 12.5877 6.69341 12.5587 6.74538C12.5269 6.8023 12.4636 6.7673 12.4141 6.77048C12.1164 6.79099 11.8965 6.69694 11.7982 6.38512C11.759 6.26067 11.6943 6.13905 11.5872 6.02379C11.5119 6.18112 11.544 6.33456 11.5458 6.47987C11.5479 6.65275 11.4924 6.71533 11.31 6.70684C10.8525 6.68598 10.9165 6.70684 10.9402 6.32607C10.989 5.53343 11.0374 4.74113 11.0858 3.94848C11.0862 3.94247 11.0858 3.93682 11.0862 3.93081C11.1024 3.78338 11.1834 3.76605 11.5642 3.80777C11.695 3.82191 11.7339 3.87919 11.7134 4.0054C11.642 4.44168 11.6409 4.88114 11.6469 5.36655Z" fill="black"/>
<path d="M7.97549 4.71802C8.06352 4.71802 8.15191 4.71484 8.23994 4.71873C8.58111 4.73358 8.75506 4.87783 8.83319 5.2091C8.89153 5.45622 8.90107 5.70972 8.92158 5.96073C8.95587 6.38181 8.81551 6.57519 8.40788 6.69858C8.15474 6.7753 7.89312 6.77742 7.64068 6.7205C7.37199 6.66005 7.19911 6.48186 7.17153 6.19372C7.1436 5.90169 7.11355 5.60931 7.09905 5.31622C7.08562 5.04647 7.39709 4.73711 7.67568 4.72792C7.77538 4.72439 7.87544 4.72721 7.97549 4.72721C7.97549 4.72403 7.97549 4.7212 7.97549 4.71802ZM8.18974 5.80235C8.19646 5.80235 8.20282 5.80164 8.20954 5.80128C8.19045 5.62027 8.17029 5.43925 8.15332 5.25789C8.14413 5.15995 8.07943 5.12531 7.99706 5.12743C7.91539 5.1299 7.83124 5.17586 7.83478 5.26036C7.84821 5.58244 7.85246 5.90629 7.91963 6.22377C7.93589 6.3012 8.00024 6.34539 8.07484 6.34362C8.15085 6.3415 8.18408 6.27256 8.18762 6.20715C8.19504 6.07245 8.18974 5.93705 8.18974 5.80235Z" fill="black"/>
<path d="M9.07662 5.70849C9.07662 5.57309 9.07167 5.43768 9.07768 5.30262C9.09183 4.97772 9.23501 4.8013 9.54649 4.72776C9.82685 4.66165 10.1072 4.662 10.3784 4.77019C10.5707 4.8469 10.6969 4.99009 10.7411 5.19409C10.768 5.31783 10.7312 5.40515 10.5799 5.39349C10.4802 5.38571 10.3805 5.37545 10.2808 5.37439C10.1822 5.37333 10.1143 5.34258 10.0832 5.24075C10.0563 5.15343 9.99372 5.10004 9.89685 5.11454C9.79927 5.12903 9.76003 5.20858 9.74977 5.2906C9.7374 5.38889 9.74765 5.49 9.7473 5.5897C9.74659 5.77213 9.73952 5.95456 9.74659 6.13664C9.74977 6.21795 9.77381 6.30457 9.87988 6.31801C9.97357 6.33003 10.0439 6.2922 10.0743 6.20275C10.1129 6.0882 10.1878 6.05143 10.3038 6.06522C10.3791 6.07441 10.4565 6.06628 10.5332 6.06805C10.7609 6.073 10.8062 6.14194 10.7118 6.35336C10.5859 6.63408 10.3229 6.68923 10.0584 6.7313C9.95448 6.74792 9.84664 6.73766 9.74129 6.74827C9.34567 6.78716 9.07627 6.4474 9.07592 6.13204C9.07592 5.99098 9.07592 5.84956 9.07592 5.70849C9.07627 5.70849 9.07662 5.70849 9.07698 5.70849H9.07662Z" fill="black"/>
<path d="M6.91414 5.43738C6.74939 5.419 6.63307 5.4038 6.5164 5.39354C6.44216 5.38718 6.41953 5.33662 6.40468 5.27687C6.37498 5.15738 6.30533 5.09056 6.177 5.11142C6.04583 5.13263 6.03452 5.24399 6.0324 5.34122C6.02426 5.74744 5.9631 6.14801 5.92492 6.55105C5.91184 6.68999 5.86411 6.72924 5.72446 6.71297C5.29384 6.66312 5.29384 6.66843 5.31788 6.24629C5.34475 5.77113 5.37091 5.29561 5.39637 4.82045C5.40698 4.62352 5.44975 4.58004 5.64244 4.60337C5.7934 4.62176 5.95851 4.56731 6.08896 4.70731C6.1328 4.75433 6.20988 4.69105 6.27033 4.67726C6.64933 4.59064 7.01702 4.84802 7.05874 5.23091C7.075 5.38188 7.03081 5.46107 6.91414 5.43738Z" fill="black"/>
<path d="M1.86104 12.4905C1.72528 12.4869 1.51563 12.435 1.31623 12.3434C1.1992 12.2897 1.11612 12.1992 1.06097 12.0846C1.01182 11.9824 0.964095 11.8718 1.03869 11.7668C1.1094 11.6674 1.21052 11.7364 1.29926 11.7449C1.35794 11.7505 1.41663 11.7562 1.47532 11.7597C1.58739 11.7661 1.68073 11.7887 1.69275 11.9294C1.69876 11.9994 1.7525 12.0443 1.81932 12.0609C1.89038 12.079 1.95225 12.0461 1.98372 11.987C2.01412 11.9294 1.94978 11.9085 1.91407 11.8834C1.75498 11.7724 1.59376 11.665 1.43502 11.5529C1.29325 11.4528 1.17198 11.3305 1.11188 11.1654C0.994146 10.8419 1.20062 10.4887 1.55558 10.4159C1.88367 10.3487 2.19938 10.412 2.49424 10.563C2.65758 10.6467 2.735 10.7995 2.75869 10.9773C2.77248 11.0813 2.73359 11.1551 2.61515 11.1467C2.48045 11.1368 2.3461 11.1184 2.21176 11.1021C2.13044 11.0922 2.11701 11.0229 2.09685 10.9625C2.07741 10.9038 2.05231 10.8493 1.9869 10.8366C1.91655 10.8232 1.837 10.8182 1.79351 10.8865C1.74331 10.9649 1.82215 11.0067 1.86882 11.0406C2.04453 11.1689 2.2312 11.2824 2.40408 11.4146C2.69894 11.6402 2.77743 11.9195 2.63318 12.1818C2.51722 12.3922 2.29166 12.4937 1.86139 12.4901L1.86104 12.4905Z" fill="black"/>
<path d="M2.87018 10.9024C2.87018 10.7553 2.86594 10.6079 2.87124 10.4608C2.88079 10.1804 2.99463 10.0242 3.26156 9.93862C3.56207 9.84246 3.86541 9.8467 4.16168 9.95665C4.35048 10.0267 4.47104 10.1702 4.52371 10.3629C4.56437 10.5114 4.5025 10.5842 4.34765 10.5814C4.25361 10.5796 4.15956 10.5609 4.06587 10.563C3.96228 10.5655 3.89935 10.5255 3.86541 10.429C3.83501 10.3424 3.77597 10.2862 3.67839 10.3067C3.5847 10.3265 3.54192 10.3996 3.54051 10.4887C3.53626 10.7645 3.53662 11.0406 3.53803 11.3164C3.53838 11.4023 3.55748 11.4857 3.66036 11.5045C3.76112 11.5229 3.83501 11.4808 3.86612 11.3821C3.90112 11.2711 3.97678 11.246 4.08355 11.2563C4.17123 11.2648 4.26032 11.2563 4.34836 11.2595C4.53008 11.2658 4.58099 11.3394 4.517 11.5069C4.49826 11.5557 4.4721 11.6035 4.44028 11.6452C4.21401 11.9422 3.41747 12.0468 3.11908 11.8234C2.95822 11.7028 2.86559 11.5487 2.86523 11.3443C2.86523 11.1972 2.86523 11.0498 2.86523 10.9027C2.86665 10.9027 2.86806 10.9027 2.86983 10.9027L2.87018 10.9024Z" fill="black"/>
<path d="M6.1026 11.1746C6.29316 11.1439 6.46074 11.1853 6.6163 11.3235C6.76479 11.4554 6.94686 11.5483 7.10419 11.671C7.3895 11.8938 7.45173 12.1745 7.29617 12.4425C7.19647 12.6139 7.03313 12.674 6.85671 12.702C6.55337 12.7497 6.25851 12.7126 5.98133 12.5712C5.79219 12.4746 5.67834 12.2738 5.69496 12.0836C5.70345 11.9864 5.74587 11.945 5.84239 11.9567C5.98239 11.9737 6.1224 11.991 6.26276 12.0055C6.34584 12.014 6.33771 12.0847 6.35609 12.1363C6.38261 12.2102 6.40842 12.2844 6.50281 12.2908C6.5615 12.2947 6.62479 12.2979 6.6559 12.2317C6.69054 12.1582 6.62266 12.1423 6.58271 12.1144C6.43387 12.0097 6.28326 11.9075 6.13371 11.8033C5.97603 11.6933 5.84522 11.5597 5.77981 11.3748C5.72466 11.2185 5.75542 11.1782 5.92052 11.175C5.97921 11.1739 6.03825 11.175 6.10225 11.175L6.1026 11.1746Z" fill="black"/>
<path d="M9.89685 11.289C10.2288 11.2851 10.2271 11.2855 10.2688 11.6129C10.2797 11.6995 10.2822 11.7889 10.3243 11.8702C10.355 11.9289 10.4053 11.959 10.4654 11.9586C10.5357 11.9579 10.5689 11.8985 10.5746 11.8398C10.5873 11.7055 10.6032 11.5687 10.5909 11.4354C10.5785 11.301 10.6319 11.2752 10.7468 11.2858C10.8284 11.2932 10.9115 11.2848 10.9939 11.2865C11.3301 11.294 11.2668 11.224 11.3103 11.5733C11.3602 11.9728 11.2248 12.1746 10.8366 12.3023C10.5286 12.4037 10.215 12.4133 9.90711 12.2895C9.71654 12.2128 9.60341 12.0721 9.57442 11.8688C9.55356 11.7235 9.54437 11.5764 9.52209 11.4311C9.50548 11.3244 9.53518 11.2773 9.64937 11.2879C9.73104 11.2954 9.81412 11.2894 9.8965 11.2894L9.89685 11.289Z" fill="black"/>
<path d="M7.98428 11.223C8.32899 11.223 8.67546 11.2022 9.01734 11.2315C9.20013 11.2471 9.28109 11.4355 9.33023 11.5995C9.40271 11.8417 9.24927 12.1284 9.00815 12.2129C8.62526 12.3473 8.25581 12.2939 7.90261 12.1072C7.79443 12.05 7.73079 11.9481 7.68483 11.8382C7.58655 11.6034 7.66539 11.502 7.91534 11.5352C7.97933 11.5437 8.04333 11.5614 8.10696 11.5589C8.24273 11.5536 8.32369 11.6041 8.34985 11.7438C8.36894 11.8452 8.44814 11.8675 8.53829 11.853C8.57965 11.8463 8.61642 11.8223 8.63198 11.7809C8.65319 11.7254 8.60263 11.7127 8.57117 11.6907C8.37036 11.5497 8.16954 11.4093 7.96837 11.2686C7.97368 11.2534 7.97898 11.2382 7.98428 11.223Z" fill="black"/>
<path d="M13.5738 11.3981C13.9319 11.3981 14.2827 11.3878 14.6323 11.4023C14.8063 11.4094 14.9951 11.7728 14.9498 11.9708C14.8826 12.2639 14.6857 12.4223 14.335 12.4537C14.0659 12.4781 13.8075 12.4276 13.5643 12.3113C13.3641 12.2158 13.2461 12.0065 13.268 11.8131C13.28 11.7092 13.3288 11.6664 13.4327 11.6855C13.5247 11.7021 13.6173 11.7258 13.7099 11.7283C13.8421 11.7318 13.9348 11.7629 13.9486 11.9171C13.9539 11.9786 14.0118 12.0146 14.0727 12.0291C14.1282 12.0422 14.1826 12.0256 14.2155 11.9807C14.2604 11.9192 14.2056 11.8821 14.1642 11.8527C14.0016 11.7371 13.8368 11.625 13.6721 11.5122C13.6343 11.4864 13.5947 11.4635 13.5738 11.3981Z" fill="black"/>
<path d="M10.3742 10.0755C10.4035 10.0755 10.4328 10.0762 10.4622 10.0755C11.047 10.0578 11.3227 10.347 11.2863 10.9332C11.2821 11.0014 11.2527 11.0106 11.1997 11.0099C11.129 11.0088 11.0586 11.0099 10.9879 11.0092C10.8645 11.0074 10.7178 11.0456 10.6238 10.9919C10.5191 10.9321 10.5842 10.7663 10.5548 10.6489C10.5308 10.552 10.5032 10.4711 10.3929 10.482C10.2798 10.4937 10.2274 10.5665 10.2218 10.6882C10.2168 10.7935 10.3038 10.9314 10.2052 10.9954C10.1302 11.0442 9.99869 11.018 9.8944 11.006C9.76853 10.9915 9.57727 11.082 9.52989 10.9505C9.46095 10.7575 9.45353 10.5284 9.61333 10.3491C9.75369 10.1918 9.92445 10.0875 10.1447 10.0878C10.2211 10.0878 10.2974 10.0878 10.3738 10.0878C10.3738 10.0836 10.3738 10.0797 10.3738 10.0755H10.3742Z" fill="black"/>
<path d="M13.0268 10.7989C12.8999 10.7862 12.7829 10.7745 12.6662 10.7632C12.5863 10.7554 12.5644 10.696 12.5453 10.631C12.516 10.532 12.4629 10.4669 12.3438 10.4743C12.213 10.4828 12.2024 10.5762 12.1872 10.6709C12.1836 10.6942 12.1762 10.7169 12.1737 10.7402C12.1521 10.924 12.0512 11.0158 11.8711 11.0156C11.6281 11.0154 11.514 10.8967 11.5289 10.6596C11.5402 10.4775 11.5515 10.2954 11.5607 10.1134C11.5667 9.99316 11.6328 9.93977 11.7459 9.95886C11.9079 9.98609 12.0878 9.92457 12.2285 10.0678C12.271 10.1112 12.3403 10.0586 12.3954 10.0469C12.8006 9.96063 13.1304 10.1738 13.2047 10.5747C13.2368 10.7494 13.1919 10.8028 13.0272 10.7985L13.0268 10.7989Z" fill="black"/>
<path d="M14.6575 11.0163C14.2743 11.0163 13.9448 11.0131 13.6156 11.0184C13.5336 11.0198 13.4848 10.988 13.441 10.9261C13.3162 10.7504 13.2748 10.5592 13.3657 10.3612C13.4774 10.1179 13.6923 10.0115 13.9465 9.99278C14.2015 9.97404 14.4514 10.0211 14.6816 10.1328C14.8778 10.2279 15.0075 10.3778 14.9998 10.6168C14.9962 10.7257 14.9421 10.7663 14.8438 10.7568C14.7388 10.7465 14.6349 10.7246 14.5299 10.7137C14.426 10.703 14.3542 10.661 14.3316 10.5514C14.3128 10.4605 14.2538 10.428 14.1626 10.4393C14.1092 10.446 14.0516 10.4421 14.0286 10.5026C14.0035 10.5687 14.0614 10.6012 14.1003 10.6292C14.2697 10.7518 14.4436 10.8685 14.6568 11.0159L14.6575 11.0163Z" fill="black"/>
<path d="M8.97949 11.0154C8.65635 11.0154 8.33321 11.0126 8.01007 11.0172C7.9277 11.0182 7.88209 10.9825 7.83825 10.9214C7.55365 10.5247 7.80855 10.0414 8.33675 9.99401C8.61004 9.96962 8.87343 10.0315 9.11915 10.1552C9.29733 10.245 9.38395 10.4002 9.40269 10.5933C9.41294 10.7 9.35779 10.764 9.24713 10.7545C9.13647 10.7449 9.02722 10.7177 8.91656 10.7078C8.8158 10.6986 8.75676 10.6555 8.73237 10.5544C8.71504 10.483 8.67615 10.4225 8.58459 10.4367C8.52837 10.4451 8.45908 10.4282 8.4315 10.4978C8.40251 10.5703 8.46226 10.606 8.50822 10.6389C8.66873 10.7538 8.83171 10.8651 8.99399 10.9779C8.98939 10.9907 8.98444 11.0034 8.97985 11.0161L8.97949 11.0154Z" fill="black"/>
<path d="M5.37975 11.8879C5.37975 12.1057 5.37728 12.3235 5.38081 12.5413C5.38258 12.6562 5.33415 12.6965 5.22031 12.6915C4.55705 12.6618 4.69564 12.7704 4.68433 12.1637C4.67867 11.8635 4.68857 11.563 4.68327 11.2632C4.6815 11.154 4.70413 11.0974 4.82822 11.1101C5.00747 11.1289 5.23975 11.0281 5.35359 11.1465C5.45718 11.2544 5.37869 11.4831 5.38506 11.6585C5.38789 11.7348 5.38541 11.8116 5.38541 11.8879H5.37975Z" fill="black"/>
<path d="M11.8371 11.3411C12.1631 11.3379 12.1652 11.3379 12.1341 11.6621C12.1146 11.8665 12.0863 12.0701 12.0634 12.2741C12.0588 12.3158 12.0563 12.3568 12.0163 12.382C11.9555 12.4198 11.515 12.3731 11.4648 12.3243C11.421 12.2815 11.4206 12.2257 11.4323 12.1751C11.4825 11.9609 11.4641 11.7413 11.4825 11.5246C11.4963 11.3644 11.5504 11.3188 11.6957 11.3397C11.742 11.3464 11.7897 11.3408 11.8367 11.3408L11.8371 11.3411Z" fill="black"/>
<path d="M7.43185 11.0146C7.22361 11.0146 7.03587 11.0131 6.8485 11.0153C6.79759 11.016 6.764 10.9951 6.72617 10.9629C6.66218 10.9088 6.56919 10.906 6.51051 10.9453C6.29202 11.092 6.05514 10.9898 5.82852 11.0096C5.72564 11.0184 5.767 10.9223 5.78539 10.8809C5.86599 10.701 6.0014 10.5709 6.19444 10.5217C6.53313 10.4354 6.85627 10.4991 7.16386 10.6525C7.30245 10.7215 7.38376 10.8396 7.43149 11.0149L7.43185 11.0146Z" fill="black"/>
<path d="M5.02781 11.0143C4.99847 11.0143 4.96913 11.0143 4.93978 11.0143C4.66861 11.0164 4.67321 11.0164 4.6824 10.7456C4.687 10.6119 4.74851 10.5529 4.87508 10.5515C4.96877 10.5504 5.06317 10.5582 5.15651 10.5526C5.32338 10.5419 5.40045 10.5953 5.38878 10.7816C5.37394 11.0178 5.38702 11.0185 5.15085 11.016C5.10984 11.0157 5.06883 11.016 5.02781 11.016V11.0146V11.0143Z" fill="black"/>
<path d="M7.13 11.1739C7.1947 11.1739 7.25939 11.1725 7.32374 11.1742C7.37606 11.1756 7.43546 11.171 7.43652 11.2502C7.43723 11.3231 7.41213 11.3902 7.33152 11.3835C7.17454 11.3708 7.01828 11.3439 6.86272 11.3178C6.82595 11.3118 6.80898 11.2739 6.80933 11.2354C6.80969 11.1866 6.84928 11.1806 6.88322 11.1795C6.96524 11.1763 7.04762 11.1785 7.13 11.1785C7.13 11.1767 7.13 11.1753 7.13 11.1735V11.1739Z" fill="black"/>
<g filter="url(#filter0_d_293_240)">
<path d="M11.3825 7.63526C11.2849 7.17918 10.8493 6.89741 10.3908 6.99357C10.3597 6.99994 10.3321 7.01054 10.3098 7.01903C10.1663 6.92145 10.0136 6.91685 9.88841 6.91332C9.85341 6.91226 9.82053 6.9112 9.78941 6.90837C9.66567 6.89705 9.57057 6.92251 9.49774 6.98615C9.4235 7.05085 9.38496 7.14595 9.3793 7.27641C9.37683 7.33015 9.37435 7.38424 9.37152 7.43833C9.27395 7.23292 9.09328 7.08373 8.85393 7.02079C8.56473 6.94478 8.26281 6.95362 7.95593 7.04696C7.74062 7.11272 7.58647 7.2453 7.50056 7.4355C7.43268 7.2559 7.32273 7.11625 7.1753 7.02539C6.95681 6.89069 6.67998 6.8769 6.37417 6.98509C6.32503 7.00241 6.31866 7.0017 6.29957 6.9964C6.08143 6.93418 5.84951 6.9462 5.62925 7.0314C5.61475 7.03706 5.59602 7.04554 5.57586 7.05756C5.54016 7.01867 5.4896 6.98473 5.41889 6.96105C5.26121 6.90837 5.06428 6.90872 4.83448 6.96246C4.73938 6.98473 4.67397 6.99286 4.59937 6.97342C4.38088 6.9165 4.15178 6.95009 3.95415 7.06817C3.80107 7.15974 3.67945 7.29691 3.6052 7.45778C3.53626 7.26333 3.42949 7.11908 3.28524 7.02822C3.07135 6.89352 2.78922 6.88327 2.44664 6.99817C2.44133 6.99994 2.43638 7.0017 2.43108 7.00347C2.28153 6.93205 2.13658 6.95221 2.01814 6.96882C1.98243 6.97377 1.94849 6.97837 1.91738 6.98014C1.78303 6.98791 1.68015 7.03388 1.61121 7.11731C1.54191 7.2011 1.51575 7.31176 1.53343 7.44682C1.57444 7.76183 1.60661 8.08461 1.63808 8.39715L1.64055 8.42154C1.68793 8.89423 1.73742 9.39874 1.78197 9.90997C1.79293 10.0348 1.83712 10.1292 1.91384 10.1903C1.97359 10.2377 2.04819 10.2617 2.13658 10.2617C2.16132 10.2617 2.18749 10.26 2.21436 10.2561C2.23203 10.2536 2.24936 10.2511 2.26703 10.2483C2.33774 10.2377 2.40492 10.2278 2.46608 10.2289C2.58876 10.2306 2.6828 10.1963 2.74715 10.1263C2.81114 10.057 2.8373 9.96158 2.82564 9.84279C2.81644 9.74804 2.80796 9.65329 2.79947 9.55854C2.7924 9.47687 2.78498 9.39308 2.77685 9.30965C3.09645 9.37187 3.41217 9.24848 3.58116 8.98863C3.59354 8.96954 3.6045 8.95044 3.61546 8.931C3.65965 9.01656 3.71798 9.09186 3.79011 9.15444C4.00082 9.33722 4.30452 9.39662 4.64533 9.32131C4.66548 9.31672 4.68316 9.31106 4.69695 9.30646C4.81256 9.35313 4.92711 9.36338 5.03494 9.36338C5.07666 9.36338 5.11732 9.36197 5.15656 9.36056C5.21489 9.35844 5.27005 9.35631 5.32202 9.35914C5.4394 9.36586 5.51187 9.32131 5.55147 9.28313C5.58081 9.25485 5.60061 9.22267 5.61369 9.19015C5.62854 9.33121 5.64374 9.47192 5.6593 9.61228C5.68971 9.88734 5.70809 10.0532 5.8336 10.1574C5.91244 10.2229 6.00401 10.2423 6.13305 10.2423C6.20659 10.2423 6.2925 10.2359 6.39467 10.2285L6.4021 10.2278C6.44488 10.2246 6.57569 10.2151 6.66125 10.1129C6.71605 10.0475 6.73832 9.96194 6.72736 9.85906C6.71852 9.77491 6.71004 9.69077 6.7012 9.60662C6.69094 9.50728 6.68105 9.40793 6.67009 9.30752C6.88327 9.34535 7.09151 9.30752 7.26333 9.19899C7.37293 9.12969 7.46061 9.03565 7.52072 8.92464C7.62466 9.18732 7.8336 9.33192 8.17866 9.39485C8.27483 9.41253 8.36816 9.42137 8.45796 9.42137C8.78817 9.42137 9.07066 9.30258 9.28738 9.07136C9.29728 9.13782 9.31849 9.19156 9.36056 9.2407C9.45319 9.34854 9.58789 9.3602 9.81098 9.37929L9.83856 9.38177C9.85199 9.38283 9.87285 9.3846 9.89831 9.3846C9.96407 9.3846 10.0609 9.37258 10.1391 9.30646C10.2352 9.22515 10.2554 9.1053 10.2618 9.02257C10.2833 8.75175 10.3081 8.47599 10.3321 8.20941C10.3438 8.07754 10.3558 7.94567 10.3671 7.8138C10.3678 7.80602 10.3692 7.79046 10.371 7.77667C10.3724 7.77667 10.3738 7.77667 10.3749 7.77667C10.3767 7.78056 10.3788 7.78622 10.3812 7.7947C10.4304 7.97148 10.5357 8.06411 10.6941 8.06976C10.7482 8.07188 10.8037 8.07789 10.8628 8.08461C10.9031 8.08921 10.9434 8.0938 10.9837 8.09699C11.0848 8.10512 11.2305 8.1037 11.3256 7.99552C11.4214 7.88627 11.4033 7.73778 11.3814 7.63526H11.3825ZM3.32838 7.82865C3.34464 7.95875 3.35277 8.08885 3.3609 8.22674C3.36196 8.24123 3.36302 8.25608 3.36373 8.27058L3.20534 7.43762C3.26615 7.52919 3.30716 7.65965 3.32838 7.82865ZM2.97872 7.28277L2.71144 7.29196C2.81432 7.2704 2.90342 7.26757 2.97872 7.28277ZM2.22638 7.30858L2.12031 7.31212C2.16203 7.30717 2.19633 7.30505 2.22638 7.30858ZM2.47174 9.87532C2.38194 9.8739 2.29709 9.88628 2.21542 9.8983C2.1988 9.90077 2.18218 9.90325 2.16557 9.90537C2.1539 9.90714 2.14471 9.90749 2.13834 9.90784C2.13693 9.90113 2.13516 9.89158 2.1341 9.87885L2.47174 9.87496L2.47315 9.86754C2.47315 9.87001 2.4735 9.87249 2.47386 9.87496C2.47315 9.87496 2.47244 9.87496 2.47209 9.87496L2.47174 9.87532ZM4.074 7.41535L3.87425 7.81627C3.87814 7.77703 3.8838 7.73814 3.89299 7.70031C3.92021 7.58823 3.98526 7.48783 4.07436 7.41535H4.074ZM9.10389 8.02663C9.10389 8.03653 9.10389 8.04678 9.10389 8.05668L9.09753 7.76218L8.98475 7.48783C9.04944 7.55712 9.08763 7.64904 9.09753 7.76218C9.10495 7.84738 9.1046 7.93436 9.10389 8.02663ZM9.04591 8.81221L9.06359 8.67114C9.07737 8.67008 9.09435 8.66867 9.10884 8.66831C9.11662 8.72877 9.05934 8.79771 9.04626 8.81221H9.04591ZM9.90573 9.02999C9.89725 9.02999 9.88558 9.02999 9.87002 9.02858L9.84209 9.0261C9.76113 9.01903 9.67805 9.01196 9.63562 9.00277C9.63562 8.99959 9.63527 8.99605 9.63492 8.99252L9.86967 9.02822L9.91351 8.94868C9.91245 8.96353 9.91103 8.97837 9.90997 8.99322C9.90856 9.00913 9.90715 9.02115 9.90538 9.02964L9.90573 9.02999ZM10.7228 7.69889C10.7196 7.68723 10.7157 7.67591 10.7118 7.66495C10.7571 7.68546 10.8037 7.70632 10.8486 7.72647C10.8097 7.72223 10.7698 7.71834 10.7277 7.71622C10.7263 7.71162 10.7245 7.70597 10.7224 7.69889H10.7228Z" fill="#FFFCF6"/>
</g>
<path d="M3.55185 8.39303C3.56882 8.56945 3.53099 8.7342 3.43553 8.88128C3.29694 9.09446 3.02648 9.19133 2.74824 9.10931C2.6047 9.06724 2.58243 9.11179 2.59515 9.23553C2.61601 9.43988 2.63157 9.64493 2.65172 9.84928C2.66516 9.98504 2.60894 10.0434 2.47071 10.0413C2.37772 10.0398 2.28439 10.0572 2.19176 10.0699C2.04681 10.09 1.97291 10.0363 1.95983 9.88358C1.91635 9.38649 1.86756 8.88976 1.81806 8.39303C1.78554 8.066 1.75301 7.73897 1.71058 7.413C1.6876 7.23588 1.76998 7.15491 1.92943 7.14572C2.08145 7.13688 2.23772 7.07855 2.38656 7.168C2.4251 7.19133 2.4654 7.168 2.50465 7.15456C3.08976 6.9587 3.42811 7.17365 3.50589 7.79554C3.53063 7.99352 3.537 8.19328 3.55185 8.39232V8.39303ZM2.85183 8.34212C2.82779 8.15686 2.80198 7.93625 2.76874 7.71634C2.75496 7.62513 2.71854 7.54205 2.59904 7.56149C2.49828 7.57811 2.44207 7.6322 2.45268 7.7418C2.47813 8.00979 2.49934 8.27813 2.52763 8.54611C2.53894 8.65395 2.62874 8.69071 2.71819 8.69248C2.81046 8.6946 2.84087 8.61506 2.85041 8.53551C2.85678 8.48354 2.85147 8.43051 2.85147 8.34177L2.85183 8.34212Z" fill="black"/>
<path d="M7.45311 8.34774C7.4669 8.4188 7.45594 8.5436 7.43296 8.66381C7.36649 9.00922 7.02497 9.21251 6.64597 9.11423C6.47273 9.06933 6.48192 9.14463 6.49465 9.25989C6.51693 9.46388 6.53672 9.66788 6.55829 9.87187C6.57102 9.99279 6.51304 10.0373 6.39601 10.0458C5.90211 10.0819 5.89645 10.0847 5.84165 9.58692C5.75963 8.84589 5.6868 8.10379 5.60938 7.36206C5.60124 7.28357 5.62069 7.22064 5.69882 7.19059C5.88125 7.12023 6.07217 7.10786 6.25707 7.16054C6.3299 7.1814 6.37975 7.1669 6.43915 7.14604C6.95285 6.96397 7.33079 7.19342 7.39867 7.73257C7.422 7.91889 7.43261 8.10733 7.45347 8.34739L7.45311 8.34774ZM6.76617 8.38133C6.7386 8.1936 6.70395 7.95 6.66612 7.70712C6.65198 7.61696 6.61062 7.55014 6.50243 7.56747C6.40202 7.58338 6.33909 7.63853 6.34935 7.74565C6.37445 8.00763 6.40308 8.26925 6.43314 8.53088C6.43985 8.58886 6.45435 8.64083 6.5194 8.67194C6.6739 8.74619 6.76971 8.65815 6.76617 8.38133Z" fill="black"/>
<path d="M5.4618 8.15287C5.4618 8.44136 5.45791 8.72986 5.46393 9.01835C5.46605 9.11911 5.44094 9.18239 5.33205 9.17638C5.13548 9.16542 4.93325 9.21421 4.74305 9.12759C4.69426 9.10532 4.65219 9.1329 4.60764 9.14244C4.05646 9.26406 3.65413 8.97486 3.69691 8.40848C3.716 8.15676 3.66014 7.90398 3.72095 7.65296C3.81145 7.28138 4.18727 7.04309 4.55425 7.1389C4.66597 7.16789 4.76143 7.15517 4.87421 7.129C5.03083 7.09259 5.21538 7.07385 5.36246 7.12299C5.58059 7.19582 5.42716 7.4076 5.44802 7.55361C5.47559 7.74983 5.45473 7.95312 5.45473 8.15322C5.45685 8.15322 5.45933 8.15322 5.46145 8.15322L5.4618 8.15287ZM4.76214 8.06378C4.75648 8.06378 4.75118 8.06342 4.74552 8.06307C4.74552 7.9517 4.75047 7.84034 4.74375 7.72932C4.73916 7.65048 4.68931 7.59851 4.60799 7.5925C4.52031 7.58578 4.44572 7.63422 4.44006 7.71412C4.4192 8.00615 4.40612 8.29959 4.4687 8.5895C4.48814 8.67859 4.56733 8.68177 4.63698 8.68319C4.70769 8.6846 4.71512 8.62733 4.71971 8.57182C4.73315 8.40247 4.748 8.23313 4.76214 8.06378Z" fill="black"/>
<path d="M7.62075 8.11447C7.61191 7.97376 7.58929 7.8341 7.60944 7.69163C7.64444 7.44485 7.77242 7.27798 8.01 7.2055C8.27375 7.12525 8.5428 7.1104 8.81149 7.18111C9.08301 7.25252 9.25201 7.45369 9.2764 7.73688C9.28736 7.86557 9.28241 7.99568 9.28347 8.12507C9.28489 8.28346 9.19367 8.34321 9.04801 8.34321C8.8419 8.34321 8.63578 8.34745 8.43002 8.33861C8.29885 8.33296 8.26279 8.41003 8.26385 8.5115C8.26526 8.62675 8.25961 8.75933 8.40986 8.79858C8.52441 8.82863 8.59972 8.75863 8.61846 8.65963C8.64002 8.54721 8.70967 8.52034 8.80053 8.50655C8.85816 8.49771 8.91649 8.48746 8.97412 8.48887C9.0763 8.49135 9.21029 8.44538 9.26438 8.55958C9.32378 8.68509 9.26862 8.8212 9.18095 8.9202C8.92109 9.21293 8.57921 9.27798 8.21435 9.21116C7.78515 9.13268 7.63383 8.92515 7.62146 8.45069C7.61863 8.33897 7.6211 8.22689 7.6211 8.11517L7.62075 8.11447ZM8.4431 7.95113C8.5428 7.94936 8.63896 7.94123 8.62588 7.80264C8.61457 7.68279 8.57568 7.57177 8.4339 7.57496C8.2992 7.57778 8.25112 7.67183 8.24476 7.80229C8.23663 7.96138 8.34623 7.94335 8.4431 7.95148V7.95113Z" fill="black"/>
<path d="M9.47592 8.61463C9.50385 8.16917 9.53709 7.7237 9.55618 7.27788C9.5629 7.12196 9.62795 7.0654 9.77361 7.07848C9.93412 7.09297 10.101 7.06398 10.2424 7.18313C10.2937 7.22626 10.3658 7.17358 10.4273 7.1605C10.7939 7.08378 11.1319 7.30121 11.2101 7.66607C11.2528 7.86547 11.198 7.93088 10.9997 7.91461C10.9004 7.90648 10.8014 7.89022 10.702 7.88668C10.6034 7.88315 10.5744 7.81774 10.5528 7.74102C10.5206 7.62541 10.4468 7.57945 10.328 7.59748C10.212 7.61516 10.2003 7.70072 10.1922 7.79229C10.1569 8.19568 10.119 8.59872 10.0868 9.00212C10.0748 9.15167 10.0232 9.21354 9.85492 9.19904C9.44623 9.16369 9.44516 9.17288 9.46355 8.77231C9.46602 8.71964 9.46885 8.6666 9.47168 8.61393C9.47309 8.61393 9.47451 8.61393 9.47592 8.61393V8.61463Z" fill="black"/>
<defs>
<filter id="filter0_d_293_240" x="1.27808" y="6.90576" width="10.3708" height="3.85596" filterUnits="userSpaceOnUse" color-interpolation-filters="sRGB">
<feFlood flood-opacity="0" result="BackgroundImageFix"/>
<feColorMatrix in="SourceAlpha" type="matrix" values="0 0 0 0 0 0 0 0 0 0 0 0 0 0 0 0 0 0 127 0" result="hardAlpha"/>
<feOffset dy="0.25"/>
<feGaussianBlur stdDeviation="0.125"/>
<feComposite in2="hardAlpha" operator="out"/>
<feColorMatrix type="matrix" values="0 0 0 0 0 0 0 0 0 0 0 0 0 0 0 0 0 0 0.4 0"/>
<feBlend mode="normal" in2="BackgroundImageFix" result="effect1_dropShadow_293_240"/>
<feBlend mode="normal" in="SourceGraphic" in2="effect1_dropShadow_293_240" result="shape"/>
</filter>
</defs>
</svg>
